<?xml version="1.0" standalone="no"?><!DOCTYPE svg PUBLIC "-//W3C//DTD SVG 1.1//EN" "http://www.w3.org/Graphics/SVG/1.1/DTD/svg11.dtd"><svg t="1688887928373" class="icon" viewBox="0 0 1024 1024" version="1.1" xmlns="http://www.w3.org/2000/svg" p-id="9654" xmlns:xlink="http://www.w3.org/1999/xlink" width="256" height="256"><path d="M183.168 481.834667a42.666667 42.666667 0 0 1 60.330667 0L512 750.336l268.501333-268.501333a42.666667 42.666667 0 0 1 60.330667 60.330666l-298.666667 298.666667a42.666667 42.666667 0 0 1-60.330666 0l-298.666667-298.666667a42.666667 42.666667 0 0 1 0-60.330666z" fill="#2c2c2c" p-id="9655"></path><path d="M183.168 183.168a42.666667 42.666667 0 0 1 60.330667 0L512 451.669333l268.501333-268.501333a42.666667 42.666667 0 1 1 60.330667 60.330667l-298.666667 298.666666a42.666667 42.666667 0 0 1-60.330666 0l-298.666667-298.666666a42.666667 42.666667 0 0 1 0-60.330667z" fill="#2c2c2c" p-id="9656"></path></svg>