<?xml version="1.0" standalone="no"?><!DOCTYPE svg PUBLIC "-//W3C//DTD SVG 1.1//EN" "http://www.w3.org/Graphics/SVG/1.1/DTD/svg11.dtd"><svg t="1688887936271" class="icon" viewBox="0 0 1024 1024" version="1.1" xmlns="http://www.w3.org/2000/svg" p-id="9830" xmlns:xlink="http://www.w3.org/1999/xlink" width="256" height="256"><path d="M840.832 542.165333a42.666667 42.666667 0 0 1-60.330667 0L512 273.664l-268.501333 268.501333a42.666667 42.666667 0 0 1-60.330667-60.330666l298.666667-298.666667a42.666667 42.666667 0 0 1 60.330666 0l298.666667 298.666667a42.666667 42.666667 0 0 1 0 60.330666z" fill="#2c2c2c" p-id="9831"></path><path d="M840.832 840.832a42.666667 42.666667 0 0 1-60.330667 0L512 572.330667l-268.501333 268.501333a42.666667 42.666667 0 0 1-60.330667-60.330667l298.666667-298.666666a42.666667 42.666667 0 0 1 60.330666 0l298.666667 298.666666a42.666667 42.666667 0 0 1 0 60.330667z" fill="#2c2c2c" p-id="9832"></path></svg>